<!--?xml version="1.0" encoding="utf-8"?-->
<!-- Generator: Adobe Illustrator 22.1.0, SVG Export Plug-In . SVG Version: 6.00 Build 0)  -->
<svg version="1.1" id="_x32_" xmlns="http://www.w3.org/2000/svg" xmlns:xlink="http://www.w3.org/1999/xlink" x="0px" y="0px" viewBox="0 0 484.922 800" style="enable-background:new 0 0 484.922 800;" xml:space="preserve">
<style type="text/css">
	.st0{fill:#231815;}
</style>
<g>
	<g>
		<g>
			<path class="st0" d="M226.21,141.336c-2.819,1.88-57.326,41.35-57.326,41.35l-68.498-35.442c0,0-3.074,9.531-8.563,18.525
				c-5.806,9.513-14.123,19.225-13.157,20.675c1.88,2.819,86.404,48.254,93.922,48.254c7.518,0,47.162-23.143,54.68-25.023
				c7.518-1.88,18.677,60.409,17.738,75.446c-0.94,15.036-11.277,46.049-11.277,46.049l4.699,4.698c0,0-13.157,63.905-11.277,67.664
				c1.88,3.759,70.483,8.458,81.76,3.759c11.277-4.699,23.494-31.952,25.374-44.169c1.88-12.217,6.579-78.001,3.759-89.278
				c-2.819-11.277-17.856-61.086-17.856-61.086L289.175,121.6l-2.451-5.889l-37.96,20.925
				C248.765,136.637,229.03,139.456,226.21,141.336z" style="fill: rgb(4, 0, 0);"></path>
			<path class="st0" d="M372.027,14.866c0.585-1.754-0.062-1.614-11.107-2.923c-12.869-1.525-19.7-11.545-33.821-9.723
				c-20.408,2.633-24.639,0.954-38.084,19.661c-24.553,17.537-14.615,41.506-9.353,49.106c-1.754,5.261,8.184,16.368,11.107,18.122
				c2.722,1.633-1.182,22.222-1.731,25.039l34.909,23.427l12.711-11.924l2.302-8.879c0,0,3.618,1.315,8.221-0.329
				c4.604-1.644,13.812-22.691,15.456-29.925c1.645-7.235,0.329-24.664,0.329-24.664s2.302-9.537,2.631-11.181
				c0.329-1.644-2.631-14.141-2.631-14.141s-0.339-1.974,1.316-3.289c3.801-3.021,6.248-9.537,6.248-9.537s-1.315,0-4.275-0.987
				C369.214,22.064,371.443,16.62,372.027,14.866z" style="fill: rgb(4, 0, 0);"></path>
		</g>
		<path class="st0" d="M341.803,126.299" style="fill: rgb(4, 0, 0);"></path>
		<path class="st0" d="M336.657,125.653c0,0,42.736,17.563,48.374,20.382c5.639,2.819,13.157,2.819,14.097,7.518l0.94,9.398
			c0,0,13.157,65.784,15.976,76.121c2.819,10.338,9.398,53.568,9.398,63.905c0,10.337-5.638,42.29-16.915,43.23
			c-11.277,0.94-18.796-2.819-18.796-2.819s15.036,45.109,13.157,52.627c-1.88,7.518-20.675,15.976-29.133,9.398
			c-8.458-6.578-39.47-114.652-37.591-123.11c1.88-8.458,13.157-123.11,12.217-134.388
			C347.441,136.637,336.657,125.653,336.657,125.653z" style="fill: rgb(4, 0, 0);"></path>
		<path class="st0" d="M384.201,261.758c5.785-1.157,99.509-56.697,99.509-56.697l-37.027,80.996l-50.912,31.241L384.201,261.758z" style="fill: rgb(4, 0, 0);"></path>
		<path class="st0" d="M393.915,393.681c0,0-9.256,124.965-19.67,163.149c-8.099,41.655-11.718,150.507-10.561,164.391
			c1.158,13.885-24.532,5.229-32.632,6.386c-8.022,0.801-20.235,0.801-21.592-7.341c-1.357-8.142,6.609-206.582,6.609-206.582
			S293,615.46,293,620.888s-3.571,109.212-13.393,118.376c-5.519,5.149-19.518-9.684-40.71-1.357
			c-13.684,5.377-3.118-1.969-3.118-23.681c0-21.712,4.298-176.115,4.298-176.115c-2.133-24.739,2.028-83.569,1.103-85.419
			c-3.471-6.942-5.785-18.513-5.785-18.513v-47.44l61.325-40.498l71.739-3.471l20.652,32.595" style="fill: rgb(4, 0, 0);"></path>
		<path class="st0" d="M317.102,716.449c0,2.446,0,11.413,0,11.413s-3.9,17.119-3.9,22.825c0,5.706,16.381,17.119,23.402,15.488
			c7.02-1.63,14.82-1.63,14.82-1.63s14.821,6.521,30.422,8.152c15.601,1.63,28.862-4.076,25.742-10.597
			c-3.12-6.521-30.422-15.489-32.762-17.119c-2.34-1.631-12.721-11.412-12.721-11.412s-7.021-1.631-7.021-11.413
			c0-9.782,1.56-17.119,1.56-17.119L317.102,716.449z" style="fill: rgb(4, 0, 0);"></path>
		<path class="st0" d="M278.231,713.414c0,3.66,0,17.077,0,17.077s3.9,25.615,3.9,34.154s-1.675,12.956-16.487,18.246
			c-7,2.5-21.735,2.49-21.735,2.49s-14.821,9.758-30.422,12.198c-15.601,2.44-28.862-6.099-25.742-15.857
			c3.12-9.758,30.422-23.176,32.762-25.615c2.34-2.44,12.721-17.077,12.721-17.077s7.021-2.439,7.021-17.077
			c0-14.637-1.56-25.615-1.56-25.615L278.231,713.414z" style="fill: rgb(4, 0, 0);"></path>
		<g>
			<path class="st0" d="M89.117,150.411c-3.42-1.907-5.923-3.272-6.306-3.399c-1.386-0.462-7.392-18.018-14.322-19.866
				c-6.93-1.848-15.708-7.392-18.942-7.854c-3.234-0.462-5.544,0.924-4.158,4.62c0,0-11.55-7.392-13.86-6.006
				c-2.309,1.386-3.234,5.082-1.848,6.006c1.386,0.924-2.31,2.772-0.924,5.082c1.386,2.31-2.31,7.854,0,9.24
				c2.31,1.386,6.006,12.012,14.322,17.556c8.316,5.544,18.018,4.62,22.638,7.392c1.638,0.982,6.876,3.998,12.955,7.48
				C81.559,164.275,85.84,155.275,89.117,150.411z" style="fill: rgb(4, 0, 0);"></path>
			<path class="st0" d="M104.846,159.288l-15.083,17.716c7.514,4.29,13.837,7.89,13.837,7.89l9.702-20.789
				C113.302,164.106,109.636,162.011,104.846,159.288z" style="fill: rgb(4, 0, 0);"></path>
		</g>
		<path class="st0" d="M81.581,132.656L81.581,132.656c-0.509,2.014-1.484,3.522-4.315,2.806l-65.374-15.439
			c-2.832-0.716-11.167-4.577-10.657-6.591l0,0c0.509-2.014,9.678-1.45,12.509-0.733l65.374,15.439
			C81.95,128.853,82.091,130.642,81.581,132.656z" style="fill: rgb(4, 0, 0);"></path>
	</g>
</g>
</svg>
