<!--?xml version="1.0" encoding="utf-8"?-->
<!-- Generator: Adobe Illustrator 22.1.0, SVG Export Plug-In . SVG Version: 6.00 Build 0)  -->
<svg version="1.1" id="_x37_" xmlns="http://www.w3.org/2000/svg" xmlns:xlink="http://www.w3.org/1999/xlink" x="0px" y="0px" viewBox="0 0 319.535 800" style="enable-background:new 0 0 319.535 800;" xml:space="preserve">
<style type="text/css">
	.st0{fill:#040000;}
</style>
<g>
	<path class="st0" d="M305.383,142.28c6.129-10.712,13.175-23.177,13.351-24.172c0.292-1.752-22.098-7.352-22.098-7.352
		s-2.252-0.567-2.813,1.69c-0.344,1.397-8.998,17.908-15.533,30.298c-0.461-2.637-4.378-2.501-5.38-0.617
		c-1.323,2.481-6.074,5.705-10.552,12.249c-5.717,8.364-4.595,9.026-5.717,13.528c-1.103,4.424-0.78,9.587-1.452,12.74
		c-1.011-0.219-1.934-0.294-2.712-0.188l-2.906,4.989c-1.777-0.737-3.062-0.878-3.555-0.141
		c-2.768,4.159-35.679,53.695-39.838,49.538c-4.159-4.159-37.463-58.649-38.162-62.118c-0.699-3.464-4.159-22.857-7.619-25.635
		c-3.461-2.765-30.704-22.586-30.704-22.586l-13.487-9.945l3.841,14.405l-4.165-0.693l-11.791,49.943l-21.507-49.943l-8.318,6.941
		l-6.13-26.971c-1.54,0.958-5.931,3.661-11.311,6.917c2.42-3.299,6.074-11.417,5.431-18.523c-0.666-7.523-1.078-26.891,3.18-34.747
		c2.151,6.45,5.5,13.431,10.308,20.919c0.111,1.652,0.068,3.296-0.387,4.125l-3.928,13.833l29.188,24.732l11.28-14.099l-0.244-0.184
		c0.23-0.739,0.455-1.413,0.66-1.97c1.454-3.867,1.179-3.356,7.015-1.152c5.843,2.217,11.411,5.219,16.4,2.494
		c4.988-2.718,1.913-10.033,5.013-12.205c3.105-2.179,2.107-4.491,2.107-4.491s1.212-1.633,2.035-3.163
		c0.828-1.532-3.006-3.878,1.839-3.97c4.839-0.096,6.198-4.358,4.52-7.763c-0.611-1.253-1.247-2.796-1.832-4.328
		c0.486-1.231,4.326-11.224,2.942-13.659c-0.506-0.895-0.841-0.949-1.14-0.486l-1.042-0.44c0.28-0.649,0.536-1.216,0.723-1.664
		c0.487-1.182,0.518-3.751,0.276-6.34c2.293-2.867,5.866-8.795,4.457-16.56v-0.007v-0.008c-0.823-4.506-3.324-9.625-8.761-15.131
		C128.057,1.305,111.818-2.331,97.284,6.738l-0.025,0.01C81.197,6.753,60.682,20.983,62.458,47.373
		c-8.193,1.64-19.187,7.192-18.376,25.3c1.285,28.607,7.053,33.046,4.491,38.046c3.415,1.815,4.694-3.635,4.694-3.635
		s0.412,6.375,1.59,9.253c-11.243,6.773-25.578,15.153-27.642,15.153c-3.467,0-14.641,4.234-19.499,15.311
		C1.2,161.661,0.166,246.985,2.242,265.706c2.083,18.733,7.284,22.893,21.856,21.851c1.839-0.128,5.082-0.41,9.335-0.805
		c0.455,2.695,0.717,4.274,0.717,4.274s-38.911,94.962-32.674,101.2c0.697,0.702,2.63,1.409,5.517,2.108
		c-1.196,28.837,10.421,78.463,13.55,119.627c2.071,27.253,0,49.938,0,49.938s-2.793,18.699-2.917,23.316
		c-0.144,4.617-17.348,106.693-9.566,124.943c2.557,6.007,5.887,19.579,5.887,19.579l-1.653,24.902c0,0,1.298,0.29,3.449,0.757
		c-1.26,4.097-2.196,7.845-2.402,10.407c-0.723,9.481-0.723,9.481-0.723,9.481s9.803,5.914,15.508,6.351
		c5.705,0.436,4.552-0.194,4.552-0.194l6.865,4.097c0,0,1.535,1.965,12.41,7.894c7.869,4.278,24.973-3.126,24.973-3.126
		s9.846-5.032,7.277-11.439c-2.494-6.248-11.024-14.541-17.441-20.173c2.345-1.419,3.916-2.722,3.916-2.722l-5.201-49.937
		l11.255-139.779c0,0,12.272-125.525,12.89-118.516c2.345,26.61-2.445,85.33-0.412,96.991c2.052,11.665,6.978,76.044,7.021,81.584
		c0.045,5.542-8.131,69.457-6.678,77.763c1.46,8.299,6.667,23.754,6.667,23.754s-5.881,15.885,1.059,17.207
		c0.698,0.134,1.639,0.297,2.768,0.468c-1.771,8.455-4.378,22.024-4.383,28.31c-0.013,9.505,5.194,9.505,5.194,9.505
		s15.382,5.307,20.584,5.307v-9.366l21.731,11.23c0,0,5.326,4.378,21.002,5.385c20.296,1.309,30.896-8.281,30.896-8.281
		s2.39-7.131-5.929-11.892c-8.311-4.761-28.122-18.46-28.122-18.46l-17.092-17.136c2.42-1.303,4.738-2.856,6.859-4.698
		l-7.189-30.421c0,0,3.442-152.923,3.947-164.078c2.007-44.035,3.086-104.952,3.616-146.45c10.843-3.566,20.335-6.94,20.335-6.94
		l-21.5-76.294l6.234-69.368c0,0,33.324,41.623,52.716,41.623c14.954,0,71.976-72.894,70.319-75.934
		c-0.636-1.173-2.632-3.334-5.326-5.902c2.282-3.256,4.945-7.508,4.403-8.874c-0.306-0.771-2.506-2.71-5.563-4.927
		c4.254-4.555,10.483-10.566,12.035-11.404c1.789-0.956,1.802-6.373,4.995-8.175c3.198-1.809,3.529-4.821,5.93-5.138
		c2.401-0.318,6.646-4.112,7.127-8.007c5.387,1.273,7.071-5.478,6.721-6.618C309.349,149.736,307.235,145.926,305.383,142.28z
		 M148.553,63.847l1.497,0.879c-0.175,0.742-0.38,1.522-0.63,2.297c-0.511,1.618-0.904,3.25-1.085,4.617
		c-0.468-1.393-0.828-2.562-0.973-3.163C147.149,67.684,147.76,65.823,148.553,63.847z"></path>
</g>
</svg>
