<!--?xml version="1.0" encoding="utf-8"?-->
<!-- Generator: Adobe Illustrator 22.1.0, SVG Export Plug-In . SVG Version: 6.00 Build 0)  -->
<svg version="1.1" id="_x34_" xmlns="http://www.w3.org/2000/svg" xmlns:xlink="http://www.w3.org/1999/xlink" x="0px" y="0px" viewBox="0 0 757.751 800" style="enable-background:new 0 0 757.751 800;" xml:space="preserve">
<style type="text/css">
	.st0{fill:#040000;}
</style>
<g>
	<g>
		<rect x="316.587" y="22.597" class="st0" width="10.63" height="748.907" style="fill: rgb(4, 0, 0); opacity: 1;"></rect>
		<path class="st0" d="M327.217,2c0,0-101.67,15.177-157.236,15.177S51.903,6.064,1.894,11.621v252.824
			c0,0,236.814,23.615,317.749-12.502L327.217,2z" style="fill: rgb(4, 0, 0); opacity: 1;"></path>
	</g>
	<g>
		<path class="st0" d="M755.721,750.295c-3.108-8.446-50.957-175.451-50.957-175.451l-20.297-120.271
			c0,0,10.313-9.482,17.814-18.052c1.355-1.551,4.329-6.65,8.214-13.873c0.628-1.166,4.43,3.253,5.167,2.017
			c25.395-42.51,40.059-93.164,40.059-99.533c0-8.313-58.19-104.181-60.565-107.744c-2.375-3.562-9.501-9.5-13.063-9.5
			c-2.67,0-32.342-11.876-47.058-17.831c-1.08,1.309-2.366,3.524-3.339,7.239c-2.034,7.766-6.279,61.88-6.279,73.54
			c0,9.518-7.776,99.943,5.721,128.761c1.311,2.798,9.998,11.932,9.998,11.932l-83.879,7.457c0,0-2.69-122.141-5.381-135.594
			c-2.69-13.453,6.151-45.179,16.272-68.249c0,0,4.41-12.878,7.112-16.047c-8.769,4.946-53.675,23.23-57.049,26.605
			c-3.563,3.563-62.943,71.413-74.818,71.413c0,0-66.253,12.237-69.816,12.237c-3.563,0,0.623,39.01,0.623,39.01
			c15.827-1.368,75.13-11.608,82.255-13.984c7.125-2.376,69.696-46.929,69.696-46.929s-0.265,81.648-1.626,104.054
			c-1.146,18.872-10.333,66.094-8.936,69.14l15.022-2.536l-16.694,156.815c0,0-20.719,108.743-25.398,126.681
			c-0.305,1.171,0.525,2.319,1.733,2.394c10.289,0.63,50.026,2.852,50.026-0.415c0-3.753,31.196-135.566,31.196-140.256
			c0-4.691,27.27-104.627,31.022-104.627c3.753,0,41.282,90.219,51.603,108.045c10.321,17.827,45.972,124.785,49.726,141.673
			C707.578,765.307,758.827,758.738,755.721,750.295z M680.668,397.072c-1.99-12.193-5.43-37.027-6.369-45.907
			c-1.044-9.862,3.586-68.503,4.195-76.554c4.691,3.753,41.348,48.253,41.282,52.392c-0.213,13.268-16.969,70.477-27.323,74.231
			c-10.354,3.753-6.438,3.253-7.375,0.439C684.881,401.083,681.196,400.305,680.668,397.072z" style="fill: rgb(4, 0, 0); opacity: 1;"></path>
		<path class="st0" d="M555.141,113.852c0,0,6.996,16.906,6.412,22.738c-0.582,5.829-1.749,14.575,5.248,28.571
			c6.997,13.992,8.162,21.571,13.41,21.571c0,0,0.939,8.096-3.811,11.658c2.321,0.583,17.907,12.109,19.504,12.109
			c1.596,0,30.514-24.821,30.514-24.821h0.001c-1.402-3.425-5.701-14.289-4.228-15.271c1.749-1.167,2.332-13.411,4.081-14.577
			c3.498,0,8.162-9.327,8.268-19.823c0.107-10.493-3.604-8.743-3.604-8.743s2.916-6.415,3.498-13.41
			c0.584-6.998-0.582-22.741-20.407-24.489c-15.159-13.411-25.369-12.359-42.563-4.785c-10.899,4.801-16.476,14.808-21.141,9.441
			C545.078,102.642,548.726,110.352,555.141,113.852z" style="fill: rgb(4, 0, 0); opacity: 1;"></path>
	</g>
	<path class="st0" d="M534.906,739.714c4.259,10.343,8.455,29.534,2.366,38.229c-1.48,2.114-26.704,2.536-32.18,3.144
		c-5.476,0.609-30.414,3.946-42.057,5.136c-14.491,1.482-21.829,2.773-23.046-2.094c-1.217-4.867,4.264-12.625,13.39-14.45
		c9.127-1.825,17.031-7.454,17.031-7.454s31.639-17.644,34.681-22.511C508.134,734.846,534.906,739.714,534.906,739.714z" style="fill: rgb(4, 0, 0); opacity: 1;"></path>
	<path class="st0" d="M716.804,760.219c-0.254,7.398-2.433,23.12-6.084,28.596c-3.651,5.476-1.217,9.735,14.602,9.126
		c15.819-0.608,27.38-0.608,29.813-8.518c2.434-7.91-1.825-16.428-4.867-29.205c-3.042-12.777-6.085-15.211-13.994-15.211
		C728.365,745.008,717.158,749.926,716.804,760.219z" style="fill: rgb(4, 0, 0); opacity: 1;"></path>
	<path class="st0" d="M592.198,208.49c-0.016-0.01-4.785,7.289-4.785,8.104c0,0.816,2.393,5.441,2.393,5.441
		s-8.921,28.835-11.37,50.87c-2.448,22.035-3.265,53.319-3.265,53.319s9.521,11.697,10.337,11.425
		c0.816-0.272,10.754-13.329,10.754-13.329s-1.505-56.583-1.233-62.84s2.448-36.997,2.448-36.997l5.985-7.617l-5.168-10.065
		L592.198,208.49z" style="fill: rgb(4, 0, 0); opacity: 1;"></path>
	<path class="st0" d="M363.919,317.251c-4.381,0.551-10.779,2.181-10.779,2.181s-5.57-4.176-12.997-5.105
		c-7.427-0.929-26.686-3.714-23.556,2.553c0,0-10.793,1.16-9.865,5.802c0.928,4.641,3.25,5.966,3.25,5.966s-0.929,4.246,1.856,7.029
		c-1.392,4.179-2.903,7.727,0.929,9.666c0,7.044,6.223,8.437,9.146,10.758c2.922,2.322,22.882-1.393,27.06-4.643
		c4.177-3.248,5.105-5.268,6.962-6.115c1.049-0.478,5.599-1.428,9.357-2.163C364.584,337.09,364.105,323.389,363.919,317.251z" style="fill: rgb(4, 0, 0); opacity: 1;"></path>
</g>
</svg>
