<!--?xml version="1.0" encoding="utf-8"?-->
<!-- Generator: Adobe Illustrator 22.1.0, SVG Export Plug-In . SVG Version: 6.00 Build 0)  -->
<svg version="1.1" id="_x31__1_" xmlns="http://www.w3.org/2000/svg" xmlns:xlink="http://www.w3.org/1999/xlink" x="0px" y="0px" viewBox="0 0 800 562.26" style="enable-background:new 0 0 800 562.26;" xml:space="preserve">
<style type="text/css">
	.st0{fill:#040000;}
</style>
<g>
	<path class="st0" d="M720.06,17.062c-4.417-3.871-12.705-13.809-37.013-15.474c-24.308-1.648-35.91,8.276-38.678,13.265
		c-2.768,4.963-11.602,12.161-13.811,12.707c-2.209,0.545-8.834-19.332-42.536-16.578c-8.834,0-10.497,6.079-10.497,9.953
		c0,3.857,1.663,9.378,1.663,9.378l2.196,4.991c0,0-11.589,1.636-18.228,1.636c-6.626,0-32.597-1.664-42.536-4.418
		c-9.938-2.753-43.094-3.299-55.241-0.545c-12.161,2.753-48.63,6.079-58.568,6.625c-9.939,0.558-86.735,1.104-106.081,1.104
		c-19.331,0-83.408-3.859-100.53-4.977c-17.138-1.091-26.53-8.274-49.733-9.938c-23.191-1.663-28.725-1.104-53.034-0.545
		C73.14,24.792,36.113,38.603,28.941,60.702C16.781,81.697-2.552,164.015,2.969,188.868c5.522,24.852,13.811,64.089,13.811,85.642
		c0,21.541,0.546,19.878-1.65,25.4c-2.221,5.521-4.975,24.308,3.859,35.909c8.834,11.602,3.313,17.682,4.976,18.786
		c1.65,1.104,19.332-17.136,16.019-35.35c-3.313-18.228-11.043-22.657-11.601-33.714c-0.56-11.031-7.185-40.327-10.498-59.1
		c-3.313-18.786-8.834-33.701-5.522-54.697c3.313-20.995,3.859-53.033,17.124-69.052c0.504,122.863,21.227,112.828,23.27,148.67
		c2.209,38.665,7.117,45.781,3.804,56.292c-3.313,10.483-23.217,46.393-19.905,55.8c3.327,9.394,11.056,63.531,12.721,82.304
		c1.648,18.786,7.73,52.488,6.079,61.875c-1.662,9.392-5.535,13.809-1.662,15.46c3.857,1.676,9.938,2.767,11.601,4.99
		c1.664,2.194,6.625,2.754,7.73,13.797c1.105,11.056,13.825,20.437,23.763,18.786c9.938-1.65,35.35-1.65,27.62-10.498
		c-7.73-8.848-22.099-18.226-25.412-23.203c-3.313-4.962-3.872-1.104-3.872-1.104s2.223-4.417-3.313-11.601
		c-5.521-7.165-13.265-32.591-13.265-43.633c0-11.056-2.208-44.198,0.56-50.265c2.767-6.094,6.626-24.88,6.626-24.88
		s12.161,26.531,14.914,40.9c2.768,14.355,6.081,22.085,7.185,30.373c1.104,8.29,2.767,16.033,3.313,20.995
		c0.558,4.977,2.223,9.394,4.417,9.953c2.223,0.545,10.499,1.091,10.499,1.091s12.705,12.154,18.24,13.817
		c5.522,1.65,26.516,6.081,32.584,1.65c6.08-4.417,4.976-1.65,3.871-6.081c-1.104-4.396-20.435-18.765-22.1-18.765
		c-1.648,0-6.079,2.208-6.625,0c-0.546-2.223-8.834-13.811-12.161-20.995c-3.313-7.185-20.437-56.347-19.877-65.74
		c0.545-9.393,5.522-49.175,5.522-51.384c0-2.208,1.662-22.113,3.313-22.657c1.663-0.546,7.73-2.209,10.498-2.755
		c2.767-0.558,0.545,7.172,0.545,14.916c0,7.73,4.022,15.064,6.64,7.17c2.208-6.611,3.313-20.435,3.313-20.435
		s31.493,9.393,58.554-20.437c0,0,7.744-4.417,23.763,0c16.02,4.417,27.621,9.394,49.162,12.693
		c21.554,3.327,71.273,2.222,99.999-2.194c28.725-4.417,89.502-15.474,89.502-15.474s-3.873,76.25-2.209,83.966
		c1.65,7.744-1.664,11.615,0,19.905c1.65,8.276,2.767,24.308,1.104,32.598c-1.663,8.274-2.768,25.957-4.977,37.559
		c-2.208,11.601-4.961,20.995-4.961,23.203c0,2.209-1.664,8.827,2.194,10.491c3.871,1.649,6.639,3.313,7.185,8.848
		c0.558,5.507,0,9.938,2.767,12.705c2.767,2.755,16.564,14.37,20.449,14.37c3.859,0,11.045-0.572,20.995-7.198
		c9.926-6.625,5.509-4.977,1.092-11.602c-4.417-6.626-14.357-14.356-14.357-14.356h-3.871c0,0-2.767-5.514-2.767-7.737
		c0-2.223-4.417-24.308-3.859-32.038c0.546-7.73,2.767-41.99,4.963-45.849c2.221-3.871,4.417-7.184,4.417-7.184
		s0,23.189-0.546,31.492c-0.559,8.276-1.104,19.332-1.65,24.854c-0.559,5.521,0,14.355,0,18.786c0,4.417,1.65,9.939,3.859,11.043
		c2.223,1.118,7.185,4.424,7.185,4.424s11.601,13.237,19.891,14.369c8.274,1.091,26.517,0,27.061-5.535
		c0.56-5.522-15.46-17.675-18.227-19.326c-2.768-1.663-7.185-1.117-7.185-1.117s3.327-7.171,1.664-9.939
		c-1.664-2.753-6.626-4.976-7.744-13.81c-1.091-8.848-6.068-34.246-3.859-42.536c2.209-8.288,4.417-17.682,7.731-28.193
		c3.313-10.485,12.706-64.077,13.811-71.261c1.104-7.172,19.331,10.497,59.672-41.432c40.327-51.928,38.664-60.218,43.094-65.74
		c4.417-5.521,11.043-28.165,17.124-32.596c6.08-4.417,7.731-11.603,7.731-11.603s1.104,1.104,9.952-1.104
		c8.834-2.209,19.331-12.147,22.085-19.877c2.767-7.744,6.081-11.057,9.953-18.242c3.871-7.184,12.707-39.767,13.811-47.497
		c1.104-7.744,1.104-15.474,1.104-15.474s2.209-4.976,2.767-6.639c0.546-1.663,3.859-5.508,7.73-2.753
		c3.873,2.753,8.29,6.626,20.451,4.417c12.146-2.208,46.393-27.622,40.871-36.456c-5.521-8.834-19.332-17.122-32.038-12.161
		c-12.707,4.963-20.995,19.891-28.18,14.916C730,35.849,720.06,17.062,720.06,17.062z"></path>
</g>
</svg>
