<?xml version="1.0" encoding="UTF-8"?><svg id="_イヤー_2" xmlns="http://www.w3.org/2000/svg" viewBox="0 0 318.9 126.9"><defs><style>.cls-1{fill:#fff;}</style></defs><g id="Layer_1"><path class="cls-1" d="M108.5,126.8c-34.3,0-68.2-.1-102,.1-5,0-6.5-1.4-6.5-6.5C.2,82.4,.2,44.4,0,6.4,0,1.4,1.5,0,6.5,0,108.7,.1,210.8,.1,313,0c4.6,0,6,1.3,5.9,5.9-.2,30.3-.1,60.7-.1,91,0,1-.1,2-.1,3,0,2.2-1.3,2.8-3.2,2.8s-3.3-.5-3.3-2.7c0-3.2-.1-6.3-.1-9.5,0-25.5-.1-51,.1-76.5,0-4.7-1.1-6.3-6-6.3-97.7,.1-195.3,.1-293,0-5,0-6.5,1.3-6.5,6.4,.2,33,.2,66,0,99,0,5,1.6,6.1,6.3,6.1,34.3-.2,68.7-.1,103,0,1.9,0,4.1-.8,5.4,1.4,1.7,2.8-.1,6.1-3.5,6.2-2.9,.1-5.9,0-9.4,0Z"/><path class="cls-1" d="M166.5,41.5c10,10.6,6.9,32.4-11.1,36.1-9.7,2-19.9-3.1-23.9-11.5-4.2-8.8-2-19.6,5.2-25.9,7.5-6.5,18.3-7,26.8-1.1,.9,.7,1.8,1.4,3,2.4m-8,25.5c1.8-1.3,2.9-3.1,3.8-5.1,3-6.9-.4-15.3-7.2-17.6-7-2.5-14.1,1.2-16.2,8.1-1.7,5.8-.2,10.8,4.5,14.6,4.7,3.7,9.5,3.9,15.1,0Z"/><path class="cls-1" d="M93.2,44.5c0-8.4,0-8.5,7.8-8.4,5.9,.1,12-.9,17.3,3,8.1,5.9,10,19.8-1.1,28.4,.3,4.1,4.5,5.8,6.2,9.7-5.2,1-9.7,1.6-13.3-3-1-1.3-2.2-2.5-3.6-3.4-2.5-1.6-4.7-1.4-4.6,2.2,.1,3.7-1.1,5-4.9,4.9-4.1-.1-3.9-2.6-3.9-5.4,.1-9.2,.1-18.3,.1-28m21.5,13.5c.8-1.6,1.4-3.3,1.4-5.2,0-5.5-3.4-8.7-8.9-9.1-6.8-.5-5.2,4.2-5.4,7.9-.1,1.5,0,3,0,4.5,0,5.9,2.3,7.5,8,5.6,1.8-.6,3.3-1.6,4.9-3.7Z"/><path class="cls-1" d="M278.9,70.4c-.5,2.8,1.2,5.7-1.8,7.2-3.8,1.8-6.8-.3-6.8-4.6-.1-3.5-.1-7,0-10.5,0-2.5-1.1-3.7-3.6-3.6h-.5c-14.1-.9-14.2-.9-14.3,13.3,0,3.8-.8,6.1-5.3,5.6-2.3-.3-3.3-1.1-3.3-3.4V39.4c0-2.7,1.5-3.4,3.8-3.4s4.5,.1,4.6,3.2c0,.7,0,1.3,.1,2,.6,3.1-1.9,7.9,1.5,9.2,4.7,1.8,10.2,.9,15.3,.3,1.6-.2,1.6-1.9,1.6-3.3,0-2.2,.1-4.3,0-6.5-.2-3.2,.6-4.9,4.3-5,3.7,0,4.4,1.7,4.4,4.9-.1,9.8,0,19.4,0,29.6Z"/><path class="cls-1" d="M230.1,40.9c2,2,3.8,3.8,.9,6-2.2,1.7-4.1,3.5-7.1,.4-5.2-5.4-13.1-4.8-18,.8-4.8,5.6-4,14.7,1.8,19.1s14.3,3.2,18-3.6c2.7-4.9,5.9-5,10.2-4-.5,9.7-9.2,17.7-19,18.3-14,.9-21.5-9.1-22.7-17.2-1.5-10.2,2.5-18.4,10.6-22.8,8.5-4.6,17.1-3.7,25.3,3Z"/><path class="cls-1" d="M49.4,77.8H19.2c7.4-11.8,14-22.3,20.8-33.3-5-1.3-9.6-.6-14.2-.7-2.9-.1-4.8-.5-4.7-4.1,.1-3.4,2-3.6,4.6-3.6h29.4c-7.4,11.6-14.1,22.3-21.1,33.4,5.8,1,10.7,.3,15.6,.6,2.8,.2,6.3-1.1,6.2,4,0,4.7-3.3,3.5-6.4,3.7Z"/><path class="cls-1" d="M75.8,70.1c2.6,0,4.8,.1,7,0,2.5-.1,4.1,.6,4.1,3.6s-1.2,4.2-4.2,4.1c-5.8-.1-11.7-.1-17.5,0-3,.1-4.1-1.2-4.1-4.2,.1-11.2,.1-22.3,0-33.5,0-2.6,.7-4.1,3.6-4.1,5,.1,10,.1,15,0,2.8,0,3.8,1.4,3.8,4-.1,2.4-1.1,3.7-3.6,3.7-2,0-4,.1-6,0-2.5-.1-4.1,.5-4.1,3.6,0,2.9,1.3,3.8,4,3.7,2.8-.1,5.7,.1,8.5,0,2.5,0,3.5,1.1,3.6,3.6,0,2.6-.8,4.2-3.7,4-1.8-.1-3.7,0-5.5,0-6.8,0-6.7,.2-6.9,6.5-.1,4.5,2,5.3,6,5Z"/><path class="cls-1" d="M179.2,39.6c.2-4.6,3.3-3.4,5.6-3.4,2.5,0,2.8,1.9,2.9,3.9v33.9c0,3.2-1.8,3.8-4.5,3.8-3.1,0-4-1.4-3.9-4.3,0-11.1-.1-22.2-.1-33.9Z"/><path class="cls-1" d="M295.9,73.3c.4,4.5-2.2,4.5-5.1,4.5s-3.6-1.6-3.6-4.1c.1-11.1,.1-22.2,0-33.3,0-3.3,1.3-4.3,4.4-4.3s4.4,1.2,4.3,4.4c-.1,10.8,0,21.5,0,32.8Z"/></g></svg>